<?xml version="1.0" encoding="UTF-8" standalone="no"?>
<svg width="140px" height="26px" viewBox="0 0 140 26" version="1.1" xmlns="http://www.w3.org/2000/svg" xmlns:xlink="http://www.w3.org/1999/xlink">
    <!-- Generator: Sketch 3.7.2 (28276) - http://www.bohemiancoding.com/sketch -->
    <title>Logo</title>
    <desc>Created with Sketch.</desc>
    <defs>
        <linearGradient x1="50%" y1="0%" x2="50%" y2="100%" id="linearGradient-1">
            <stop stop-color="#D80947" offset="0%"></stop>
            <stop stop-color="#ED7820" offset="100%"></stop>
        </linearGradient>
        <polygon id="path-2" points="13.6257372 20.8861076 13.6257372 0.016135277 6.83371841 0.016135277 0.0416996065 0.016135277 0.0416996065 20.8861076 13.6257372 20.8861076"></polygon>
    </defs>
    <g id="v2" stroke="none" stroke-width="1" fill="none" fill-rule="evenodd">
        <g id="Home-v1" transform="translate(-170.000000, -40.000000)">
            <g id="Header" transform="translate(0.000000, -1.000000)">
                <g id="Logo" transform="translate(170.000000, 41.000000)">
                    <polygon id="Fill-1" fill="url(#linearGradient-1)" points="0.000453804666 21.1354985 14.9270977 21.1349943 -5.0422741e-05 6.20835037"></polygon>
                    <g id="Group-17" transform="translate(20.015307, 0.137654)">
                        <path d="M11.6299043,13.5491451 C11.3303932,13.1407209 10.9007915,12.7892744 10.3532005,12.5053943 C9.81115603,12.2250439 9.10372498,12.0445305 8.25057221,11.9683921 L5.08704946,11.6683768 C4.67358299,11.6340894 4.34482672,11.5750948 4.10582293,11.4924015 C3.88295441,11.4157589 3.71655937,11.3270149 3.61168007,11.2291948 C3.51688532,11.140955 3.4558738,11.0370841 3.4246117,10.9115315 C3.38528196,10.7547168 3.36511287,10.5676484 3.36511287,10.3553687 C3.36511287,9.87887377 3.49772467,9.5647401 3.7705117,9.39431123 C3.98682526,9.25917829 4.47088357,9.09832975 5.54993022,9.09832975 L6.51855107,9.09832975 L7.71911652,9.09832975 C8.154769,9.09832975 8.67210632,9.10286779 9.25650588,9.11194389 C9.83737586,9.12152421 10.5100152,9.13513835 11.2729113,9.15278631 L11.2799705,9.15278631 C11.4211541,9.15278631 11.5431772,9.05395773 11.5719181,8.9152952 L12.0635399,6.54139257 C12.0811878,6.45516968 12.0600103,6.3654172 12.0055537,6.29633805 C11.9505929,6.22725889 11.8684039,6.18540802 11.7801641,6.18288688 C10.5942212,6.14658251 9.51668723,6.12792609 8.57882425,6.12792609 L5.85044975,6.12792609 C3.84211199,6.12792609 2.36472569,6.50407974 1.45913327,7.24630248 C0.535892888,8.00264359 0.067465627,9.05748733 0.067465627,10.3831012 L0.067465627,10.8469904 C0.067465627,11.3128965 0.141082828,11.7757773 0.286804549,12.2215143 C0.435047406,12.6758232 0.670017378,13.0918108 0.986167962,13.4568714 C1.30231855,13.8224363 1.72032307,14.1320319 2.22858429,14.376078 C2.73129902,14.6181072 3.34494377,14.7698796 4.05287905,14.8273615 L7.32380223,15.1273768 C7.73172221,15.1616643 8.05241084,15.2241885 8.27931317,15.3129325 C8.49058445,15.3961301 8.65193722,15.4954629 8.75681652,15.6074013 C8.85766201,15.715306 8.9237158,15.8363206 8.9569948,15.9775043 C8.99682877,16.145412 9.01699787,16.3289508 9.01699787,16.5220699 C9.01699787,17.098906 8.86825078,17.4811104 8.57479043,17.6585984 C8.33931623,17.8007906 7.79878445,17.970211 6.55939349,17.970211 C5.7243929,17.970211 4.79812716,17.9656729 3.80631185,17.9565968 C2.79382321,17.9475207 1.78486417,17.9339066 0.80767146,17.9157544 L0.802124958,17.9157544 C0.660941285,17.9157544 0.538918252,18.014583 0.51017729,18.1532455 L0.019059796,20.5271481 C0.00141183674,20.6143795 0.0230936152,20.7046362 0.0785586299,20.7742196 C0.134023645,20.843803 0.217725394,20.8846454 0.306469418,20.8861581 C1.39307948,20.9033018 2.49078254,20.9174202 3.56932497,20.9270005 C4.6866929,20.9360766 5.62052206,20.9406146 6.42325209,20.9406146 C8.4104123,20.9406146 9.91351419,20.5568976 10.8896985,19.8000522 C11.8895814,19.0260632 12.3968342,17.9323939 12.3968342,16.5492981 L12.3968342,16.1670938 C12.3968342,15.7480808 12.3438903,15.307386 12.239011,14.8581194 C12.1300979,14.3932217 11.9248773,13.952527 11.6299043,13.5491451" id="Fill-2" fill="#FFFFFF"></path>
                        <path d="M23.6786703,12.7434401 L30.2931254,6.70834226 C30.3576665,6.6538857 30.3990132,6.57220086 30.3990132,6.4809357 C30.3990132,6.31605334 30.2664013,6.1829373 30.101519,6.1829373 L30.1000063,6.1829373 L26.4710817,6.1829373 C26.3954475,6.1829373 26.3223346,6.21167827 26.2668696,6.26361369 L20.8756701,11.3305949 L20.8756701,0.31423452 C20.8756701,0.149352158 20.7420499,0.0162361225 20.5771675,0.0162361225 L17.7121474,0.0162361225 C17.5477692,0.0162361225 17.414149,0.149352158 17.414149,0.31423452 L17.414149,20.5877059 C17.414149,20.7525882 17.5477692,20.8862085 17.7121474,20.8862085 L20.5771675,20.8862085 C20.7420499,20.8862085 20.8756701,20.7525882 20.8756701,20.5877059 L20.8756701,14.5394981 L26.8280747,20.7934306 C26.8845481,20.8524252 26.9627034,20.8862085 27.043884,20.8862085 L30.8094543,20.8862085 C30.9289562,20.8862085 31.0373651,20.8146082 31.0842582,20.7046866 C31.1306471,20.594765 31.1074527,20.4671955 31.0242551,20.3809726 L23.6786703,12.7434401 Z" id="Fill-4" fill="#FFFFFF"></path>
                        <path d="M37.0897075,19.3440794 C38.0729509,20.0414259 39.4847876,20.3943851 41.2868964,20.3943851 C41.9544935,20.3943851 42.5237662,20.3616103 42.9795878,20.296565 C43.443477,20.2300069 43.840304,20.1377333 44.1584715,20.021761 C44.4826897,19.904276 44.7595105,19.7625881 44.9818748,19.6012354 C45.0050693,19.5845959 45.0277595,19.5679563 45.0499455,19.5513168 C45.0343145,20.1402545 44.9748156,20.6369185 44.8729617,21.0312243 C44.7600148,21.4648599 44.5729464,21.8072303 44.3157904,22.048251 C44.0546006,22.2938097 43.7092049,22.4712978 43.288175,22.5771855 C42.8399168,22.6886198 42.2857709,22.7455975 41.6413683,22.7455975 L39.5679852,22.7455975 C38.9039177,22.7455975 38.1092553,22.7269411 37.2056798,22.6906367 L37.1935783,22.6906367 C37.0539073,22.6906367 36.9323885,22.7879526 36.9021349,22.9251024 L36.3837891,25.2995093 C36.3651327,25.3857322 36.385806,25.4764931 36.4397583,25.5460765 C36.4947191,25.6156599 36.5769082,25.658015 36.6656522,25.6610403 C37.2127389,25.6786883 37.7048649,25.6923024 38.1425343,25.7018827 C38.5837333,25.7109588 38.9992166,25.7154969 39.376883,25.7154969 L40.4957636,25.7154969 L41.6691008,25.7154969 C42.8353788,25.7154969 43.8579519,25.5970034 44.7080793,25.3640504 C45.5788801,25.1240381 46.3084971,24.7388084 46.8772656,24.2184457 C47.450068,23.693545 47.8731148,23.0072915 48.1338003,22.1778374 C48.3874267,21.3700651 48.5155005,20.3757287 48.5155005,19.223569 L48.5155005,6.48073401 C48.5155005,6.31635588 48.3823845,6.18273561 48.2175021,6.18273561 L45.352482,6.18273561 C45.1881038,6.18273561 45.0544836,6.31635588 45.0544836,6.48073401 L45.0544836,14.6391334 C45.0544836,15.1952963 45.01112,15.6642278 44.9254014,16.0318095 C44.8472461,16.3686335 44.7045498,16.6328486 44.4902531,16.8395819 C44.2774691,17.0448024 43.9593016,17.1935495 43.5443225,17.2807808 C43.0945516,17.3760798 42.4819153,17.4244856 41.7230531,17.4244856 C41.044363,17.4244856 40.5073608,17.3690206 40.1281818,17.2590991 C39.7807691,17.1587578 39.527647,17.0130361 39.376883,16.8259677 C39.2215809,16.6338571 39.1237608,16.3903152 39.0859438,16.1018972 C39.042076,15.771124 39.01989,15.3803477 39.01989,14.939653 L39.01989,6.48073401 C39.01989,6.31635588 38.8862697,6.18273561 38.7218916,6.18273561 L35.8568714,6.18273561 C35.6919891,6.18273561 35.5583688,6.31635588 35.5583688,6.48073401 L35.5583688,15.5946444 C35.5583688,17.3624657 36.0736892,18.6240426 37.0897075,19.3440794" id="Fill-6" fill="#FFFFFF"></path>
                        <path d="M68.1406362,5.74617553 C67.164452,5.74617553 66.2669272,5.89441838 65.472769,6.18737451 C64.8056762,6.43343748 64.273212,6.76219375 63.8839485,7.16658413 C63.4946849,6.76219375 62.9622208,6.43343748 62.2961364,6.18737451 C61.5009697,5.89441838 60.603445,5.74617553 59.6277649,5.74617553 C57.6985909,5.74617553 56.2126327,6.11426153 55.2097244,6.83934054 C54.1770667,7.58710979 53.6536786,8.86179667 53.6536786,10.6286095 L53.6536786,20.587605 C53.6536786,20.7524874 53.7872989,20.8861076 53.951677,20.8861076 L56.8166971,20.8861076 C56.9815795,20.8861076 57.1151998,20.7524874 57.1151998,20.587605 L57.1151998,11.2014118 C57.1151998,10.7612213 57.1373858,10.3704451 57.1812535,10.0396719 C57.2190706,9.74873268 57.3138654,9.50317393 57.4626124,9.30955061 C57.6053088,9.12449915 57.8402788,8.97978588 58.1604632,8.88045308 C58.5119097,8.77153996 59.0055483,8.71657918 59.6277649,8.71657918 C60.266621,8.71657918 60.7642935,8.77153996 61.1066639,8.87994886 C61.4207976,8.97978588 61.6577845,9.12651606 61.8105654,9.31509711 C61.9673801,9.50972889 62.0626791,9.74671577 62.1015046,10.0396719 C62.1448681,10.3744789 62.1670541,10.7652551 62.1670541,11.2014118 L62.1670541,20.587605 C62.1670541,20.7524874 62.3006744,20.8861076 62.4655568,20.8861076 L65.3305769,20.8861076 C65.494955,20.8861076 65.6285753,20.7524874 65.6285753,20.587605 L65.6285753,10.8197117 C65.6285753,10.4581806 65.6588289,10.1349709 65.7178235,9.85815003 C65.769759,9.6110786 65.8746383,9.40837918 66.0369995,9.23845454 C66.1983523,9.06953836 66.4368518,8.94096037 66.7464474,8.85574594 C67.0827671,8.76347233 67.5516986,8.71657918 68.1406362,8.71657918 C68.7799966,8.71657918 69.277669,8.77153996 69.6195352,8.87994886 C69.9341731,8.98029011 70.17116,9.12651606 70.3234367,9.31509711 C70.4807556,9.50972889 70.5760546,9.74671577 70.6143759,10.0396719 C70.6582437,10.372462 70.6804297,10.7632382 70.6804297,11.2014118 L70.6804297,20.587605 C70.6804297,20.7524874 70.8140499,20.8861076 70.9784281,20.8861076 L73.8434482,20.8861076 C74.0083306,20.8861076 74.1419508,20.7524874 74.1419508,20.587605 L74.1419508,10.6286095 C74.1419508,8.86129244 73.6135205,7.58660556 72.5712824,6.83883632 C71.559298,6.1137573 70.0688018,5.74617553 68.1406362,5.74617553 Z" id="Fill-8" fill="#FFFFFF"></path>
                        <path d="M82.4433492,6.18268519 L79.578329,6.18268519 C79.4134467,6.18268519 79.2803306,6.31630545 79.2803306,6.48068359 L79.2803306,20.587958 C79.2803306,20.7523361 79.4134467,20.8859564 79.578329,20.8859564 L82.4433492,20.8859564 C82.6082315,20.8859564 82.7413475,20.7523361 82.7413475,20.587958 L82.7413475,6.48068359 C82.7413475,6.31630545 82.6082315,6.18268519 82.4433492,6.18268519" id="Fill-10" fill="#FFFFFF"></path>
                        <path d="M99.3324966,6.86445107 C98.2761401,6.12222832 96.6258038,5.74607468 94.4268681,5.74607468 C92.2279324,5.74607468 90.5775961,6.12222832 89.5212397,6.86445107 C88.4321085,7.62986827 87.8799795,8.89598329 87.8799795,10.6285087 L87.8799795,20.5880084 C87.8799795,20.7523865 88.0135997,20.8860068 88.1784821,20.8860068 L91.0435022,20.8860068 C91.2078804,20.8860068 91.3415006,20.7523865 91.3415006,20.5880084 L91.3415006,11.201311 C91.3415006,10.7641458 91.3682247,10.3758907 91.4201601,10.0476387 C91.4655406,9.75871638 91.5749579,9.52374641 91.7534544,9.33012309 C91.9319509,9.13750822 92.2228901,8.98775268 92.6197171,8.88438606 C93.0473019,8.7729518 93.6554002,8.71647833 94.4268681,8.71647833 C95.198336,8.71647833 95.8064343,8.7729518 96.2345234,8.88438606 C96.6313503,8.98775268 96.9222896,9.13801244 97.1002818,9.33012309 C97.2792826,9.52425064 97.3886999,9.75871638 97.4340804,10.0471345 C97.4860158,10.376395 97.5122356,10.7651543 97.5122356,11.201311 L97.5122356,20.5880084 C97.5122356,20.7523865 97.6458559,20.8860068 97.810234,20.8860068 L100.675254,20.8860068 C100.840137,20.8860068 100.973757,20.7523865 100.973757,20.5880084 L100.973757,10.6285087 C100.973757,8.89598329 100.421628,7.62936404 99.3324966,6.86445107" id="Fill-12" fill="#FFFFFF"></path>
                        <g id="Group-16" transform="translate(106.041545, 0.000000)">
                            <mask id="mask-3" fill="white">
                                <use xlink:href="#path-2"></use>
                            </mask>
                            <g id="Clip-15"></g>
                            <path d="M10.164569,17.9429323 L6.86087105,17.9429323 C6.10452994,17.9429323 5.49391055,17.8904926 5.04514816,17.787126 C4.63773242,17.6928355 4.33519597,17.5138347 4.12241201,17.239535 C3.90105618,16.955655 3.75130064,16.5442054 3.67717921,16.0167836 C3.5980155,15.4505362 3.55717309,14.6931866 3.55717309,13.7664167 L3.55717309,12.7297251 C3.55717309,11.8574117 3.5980155,11.137375 3.67717921,10.5892798 C3.75079641,10.0810185 3.89954349,9.68419157 4.11938664,9.40989186 C4.33469175,9.14113865 4.63521128,8.96012101 5.03859321,8.85725862 C5.47575837,8.74582437 6.07074671,8.6893509 6.80641449,8.6893509 C7.51031595,8.6893509 8.09723665,8.73321868 8.55154555,8.8199458 C8.96400357,8.90011795 9.28973447,9.05289886 9.51865371,9.27375046 C9.74908564,9.49661898 9.913968,9.81024842 10.009267,10.2065712 C10.1121294,10.6366771 10.164569,11.2009076 10.164569,11.8836315 L10.164569,17.9429323 Z M13.3275875,0.016135277 L10.4625674,0.016135277 C10.2981893,0.016135277 10.164569,0.14975554 10.164569,0.314133674 L10.164569,6.50806314 C9.84438462,6.32603704 9.45512106,6.170735 9.00131639,6.0436697 C8.29640648,5.84601255 7.48460035,5.74617553 6.58808403,5.74617553 C5.32398592,5.74617553 4.25804918,5.89391416 3.42052746,6.1853576 C2.56384509,6.48386022 1.87254932,6.94119448 1.366305,7.54425046 C0.864094507,8.14276839 0.512648004,8.8880165 0.321545817,9.75982568 C0.135485904,10.6039024 0.0416996065,11.6032811 0.0416996065,12.7297251 L0.0416996065,13.7664167 C0.0416996065,15.0219429 0.150108499,16.1055276 0.363900919,16.9879256 C0.583239841,17.8960391 0.959897714,18.6513718 1.48227731,19.2317375 C2.00818649,19.8161371 2.71511332,20.2447304 3.58288868,20.5049117 C4.42595691,20.7580339 5.47374146,20.8861076 6.69750137,20.8861076 L10.5447565,20.8861076 C11.7266655,20.8861076 12.5172941,20.6803829 12.96051,20.2578403 C13.4022132,19.8373146 13.6260902,19.1586245 13.6260902,18.2409307 L13.6260902,0.314133674 C13.6260902,0.14975554 13.4924699,0.016135277 13.3275875,0.016135277 L13.3275875,0.016135277 Z" id="Fill-14" fill="#FFFFFF" mask="url(#mask-3)"></path>
                        </g>
                    </g>
                </g>
            </g>
        </g>
    </g>
</svg>